<svg width="219" height="28" fill="none" xmlns="http://www.w3.org/2000/svg"><path fill-rule="evenodd" clip-rule="evenodd" d="M11.06 0c2.203 0 4.226.375 6.07 1.125 1.844.75 3.436 1.769 4.776 3.055a14.078 14.078 0 0 1 3.145 4.48A12.857 12.857 0 0 1 26.184 14c0 1.902-.378 3.638-1.134 5.34a14.078 14.078 0 0 1-3.145 4.48c-1.34 1.287-2.932 2.305-4.776 3.055-1.844.75-3.867 1.125-6.07 1.125H0V0h11.06zm3.77 5.18L5.18 15.721h6.066L8.489 22.82l9.924-10.541h-6.065L14.83 5.18z" fill="#545666"/><path d="M42.457 19.915c-1.263 0-2.346-.29-3.25-.873-.892-.594-1.498-1.436-1.82-2.526l2.934-1.133c.161.607.452 1.072.873 1.393.433.31.954.465 1.56.465.533 0 .935-.1 1.208-.297.272-.198.408-.477.408-.836 0-.384-.16-.681-.483-.892-.31-.223-.706-.414-1.188-.575-.47-.174-.985-.341-1.542-.502a7.368 7.368 0 0 1-1.56-.687 4.05 4.05 0 0 1-1.189-1.152c-.31-.482-.464-1.108-.464-1.876 0-.57.099-1.09.297-1.56.21-.483.514-.897.91-1.244a4.274 4.274 0 0 1 1.486-.799c.582-.198 1.25-.297 2.006-.297 1.238 0 2.266.285 3.083.855.817.557 1.343 1.281 1.579 2.173l-2.916 1.133c-.137-.52-.372-.904-.706-1.152-.322-.248-.718-.371-1.189-.371-.483 0-.848.099-1.096.297a.88.88 0 0 0-.352.724c0 .372.16.662.483.873.321.198.718.378 1.188.539l1.56.52a6.068 6.068 0 0 1 1.542.724c.483.31.885.718 1.207 1.226.322.495.483 1.151.483 1.969 0 .57-.118 1.095-.353 1.578-.223.47-.55.88-.984 1.226-.434.334-.966.6-1.598.799-.619.185-1.324.278-2.117.278zM58.43 9.886v9.788h-2.897v-.817a4.148 4.148 0 0 1-1.226.78c-.458.185-.96.278-1.504.278-.632 0-1.183-.099-1.653-.297a3.396 3.396 0 0 1-1.189-.817 3.736 3.736 0 0 1-.706-1.244 5.28 5.28 0 0 1-.222-1.56V9.885h3.101v5.702c0 .458.136.836.409 1.133.285.297.68.445 1.189.445.495 0 .885-.142 1.17-.427.297-.297.445-.68.445-1.151V9.886h3.084zM66.12 9.663c.706 0 1.35.13 1.931.39a4.48 4.48 0 0 1 1.523 1.077c.422.458.75 1.003.985 1.635.235.619.353 1.294.353 2.024s-.124 1.412-.372 2.043a4.81 4.81 0 0 1-1.003 1.616 4.678 4.678 0 0 1-1.541 1.077c-.594.26-1.245.39-1.95.39-.52 0-.997-.074-1.43-.223a3.709 3.709 0 0 1-1.152-.631v3.937h-3.102V9.886h2.86v.891c.36-.359.78-.631 1.264-.817a4.363 4.363 0 0 1 1.634-.297zm-.52 7.522c.656 0 1.195-.223 1.616-.669.42-.445.631-1.021.631-1.727 0-.706-.21-1.281-.631-1.727-.421-.458-.96-.687-1.616-.687-.681 0-1.232.223-1.653.668-.421.446-.632 1.028-.632 1.746s.205 1.3.613 1.746c.421.433.978.65 1.672.65zM74.997 15.7c.16.556.445.977.854 1.262.409.285.91.427 1.504.427.557 0 .985-.086 1.282-.26.297-.185.545-.44.743-.761l2.321 1.541a6.47 6.47 0 0 1-.687.762c-.26.235-.57.446-.928.631a5.069 5.069 0 0 1-1.226.446c-.458.111-.99.167-1.597.167-.805 0-1.536-.13-2.192-.39a4.901 4.901 0 0 1-1.653-1.077 4.755 4.755 0 0 1-1.059-1.616 5.547 5.547 0 0 1-.371-2.043c0-.706.13-1.368.39-1.987a5.19 5.19 0 0 1 1.096-1.635c.458-.47.996-.842 1.615-1.114a4.88 4.88 0 0 1 1.988-.409c.805 0 1.517.149 2.136.446a4.852 4.852 0 0 1 1.597 1.133c.446.458.78.984 1.003 1.579.235.582.353 1.176.353 1.783 0 .247-.007.464-.019.65a4.32 4.32 0 0 1-.056.464h-7.094zm4.29-1.932c-.136-.558-.384-.997-.743-1.32-.36-.321-.823-.482-1.393-.482-.57 0-1.046.155-1.43.464-.372.297-.625.743-.762 1.338h4.328zM86.55 10.722a3.96 3.96 0 0 1 1.189-.78 3.798 3.798 0 0 1 1.523-.298v2.898c-.817 0-1.443.155-1.876.464-.434.31-.65.786-.65 1.43v5.238h-3.102V9.886h2.916v.836zM95.11 19.915c-.743 0-1.436-.13-2.08-.39a5.16 5.16 0 0 1-1.653-1.077 5.253 5.253 0 0 1-1.096-1.616 5.264 5.264 0 0 1-.39-2.024c0-.719.13-1.387.39-2.006.26-.632.62-1.176 1.078-1.635a5.008 5.008 0 0 1 1.653-1.095 5.283 5.283 0 0 1 2.08-.409c.693 0 1.312.105 1.857.316a4.79 4.79 0 0 1 1.43.78c.396.31.718.656.966 1.04.26.384.44.755.538 1.114l-2.748 1.096a2.272 2.272 0 0 0-.688-1.152c-.334-.297-.761-.445-1.281-.445-.607 0-1.12.21-1.542.631-.408.421-.612 1.003-.612 1.746 0 .743.204 1.325.612 1.746.421.42.935.631 1.542.631.532 0 .972-.148 1.319-.445.346-.297.582-.669.705-1.115l2.75 1.096c-.1.347-.28.712-.54 1.096a4.547 4.547 0 0 1-.984 1.04c-.396.31-.873.57-1.43.78-.557.198-1.182.297-1.876.297zM106.913 9.644c.582 0 1.102.093 1.56.279.471.186.873.446 1.208.78.334.334.588.737.761 1.207.186.47.279.985.279 1.542v6.222h-3.102v-5.61c0-.532-.161-.94-.483-1.225-.309-.297-.699-.446-1.17-.446-.47 0-.873.149-1.207.446a1.453 1.453 0 0 0-.483 1.114v5.72h-3.102V6.098h3.102v4.42a3.702 3.702 0 0 1 1.152-.631 4.344 4.344 0 0 1 1.485-.242zM122.734 9.886v9.788h-2.86v-.892c-.347.36-.756.638-1.226.836-.458.198-.991.297-1.598.297-.705 0-1.362-.13-1.968-.39a4.68 4.68 0 0 1-1.542-1.077 5.052 5.052 0 0 1-1.021-1.616 5.789 5.789 0 0 1-.353-2.043c0-.73.117-1.399.353-2.006a4.67 4.67 0 0 1 1.021-1.56 4.49 4.49 0 0 1 1.542-1.003 5.156 5.156 0 0 1 1.968-.371c1.177 0 2.118.353 2.824 1.058V9.886h2.86zm-5.238 7.299c.681 0 1.226-.223 1.635-.669.421-.445.631-1.021.631-1.727 0-.718-.21-1.3-.631-1.746-.409-.445-.954-.668-1.635-.668-.656 0-1.195.229-1.616.687-.421.446-.631 1.021-.631 1.727 0 .706.204 1.282.613 1.727.421.446.966.669 1.634.669zM127.562 10.722c.334-.322.73-.582 1.188-.78a3.798 3.798 0 0 1 1.523-.298v2.898c-.817 0-1.442.155-1.876.464-.433.31-.65.786-.65 1.43v5.238h-3.101V9.886h2.916v.836zM141.489 9.886v8.246c0 .755-.124 1.443-.372 2.062a4.224 4.224 0 0 1-1.058 1.616c-.458.458-1.028.81-1.709 1.058s-1.455.372-2.322.372c-1.399 0-2.501-.266-3.306-.799-.792-.532-1.349-1.213-1.671-2.043l2.619-1.021c.198.445.501.767.91.965.421.21.91.316 1.467.316.817 0 1.449-.204 1.894-.613.459-.408.688-.947.688-1.616v-.278c-.347.359-.756.637-1.226.836-.458.185-.991.278-1.597.278a5.16 5.16 0 0 1-1.969-.371 4.722 4.722 0 0 1-1.542-1.022 4.942 4.942 0 0 1-1.003-1.523 4.913 4.913 0 0 1-.353-1.857c0-.656.118-1.275.353-1.857a4.719 4.719 0 0 1 1.022-1.542 4.58 4.58 0 0 1 1.541-1.04 4.818 4.818 0 0 1 1.951-.39c.606 0 1.139.1 1.597.297.47.186.879.458 1.226.817v-.891h2.86zm-5.275 7.02c.669 0 1.207-.216 1.616-.65.409-.433.613-.972.613-1.616 0-.643-.204-1.182-.613-1.615-.409-.434-.947-.65-1.616-.65-.309 0-.6.062-.873.185a2.006 2.006 0 0 0-.706.483 2.13 2.13 0 0 0-.464.706 2.34 2.34 0 0 0-.167.891c0 .31.056.607.167.892.112.272.266.514.464.724.199.198.434.36.706.483.273.112.564.167.873.167zM145.964 15.7c.161.556.446.977.855 1.262.408.285.91.427 1.504.427.557 0 .984-.086 1.281-.26.298-.185.545-.44.743-.761l2.322 1.541c-.198.26-.427.514-.687.762-.26.235-.57.446-.929.631a5.067 5.067 0 0 1-1.226.446 6.8 6.8 0 0 1-1.597.167c-.805 0-1.535-.13-2.192-.39a4.919 4.919 0 0 1-1.653-1.077 4.748 4.748 0 0 1-1.058-1.616 5.539 5.539 0 0 1-.372-2.043c0-.706.13-1.368.39-1.987a5.204 5.204 0 0 1 1.096-1.635c.458-.47.997-.842 1.616-1.114a4.88 4.88 0 0 1 1.987-.409c.805 0 1.517.149 2.136.446a4.841 4.841 0 0 1 1.597 1.133c.446.458.781.984 1.003 1.579.236.582.353 1.176.353 1.783 0 .247-.006.464-.018.65a4.446 4.446 0 0 1-.056.464h-7.095zm4.29-1.932c-.136-.558-.383-.997-.742-1.32-.359-.321-.824-.482-1.393-.482-.57 0-1.047.155-1.431.464-.371.297-.625.743-.761 1.338h4.327zM163.551 6.766c.991 0 1.888.154 2.693.464a5.916 5.916 0 0 1 2.099 1.281 5.653 5.653 0 0 1 1.374 2.025c.322.792.483 1.684.483 2.674 0 .991-.161 1.889-.483 2.693a5.653 5.653 0 0 1-1.374 2.025 6.138 6.138 0 0 1-2.099 1.3c-.805.297-1.702.446-2.693.446h-5.126V6.766h5.126zm-.093 10.159c1.09 0 1.963-.31 2.619-.929.656-.631.984-1.547.984-2.748 0-1.226-.328-2.155-.984-2.786-.656-.632-1.529-.948-2.619-.948h-1.931v7.411h1.931zM174.397 15.7c.161.556.445.977.854 1.262.409.285.91.427 1.504.427.558 0 .985-.086 1.282-.26.297-.185.545-.44.743-.761l2.321 1.541c-.198.26-.427.514-.687.762-.26.235-.569.446-.928.631a5.083 5.083 0 0 1-1.226.446 6.807 6.807 0 0 1-1.597.167c-.805 0-1.536-.13-2.192-.39a4.899 4.899 0 0 1-1.653-1.077 4.765 4.765 0 0 1-1.059-1.616 5.559 5.559 0 0 1-.371-2.043c0-.706.13-1.368.39-1.987a5.187 5.187 0 0 1 1.096-1.635c.458-.47.996-.842 1.616-1.114a4.877 4.877 0 0 1 1.987-.409c.805 0 1.517.149 2.136.446a4.852 4.852 0 0 1 1.597 1.133c.446.458.78.984 1.003 1.579.235.582.353 1.176.353 1.783 0 .247-.006.464-.019.65a4.464 4.464 0 0 1-.055.464h-7.095zm4.29-1.932c-.136-.558-.384-.997-.743-1.32-.359-.321-.823-.482-1.393-.482-.569 0-1.046.155-1.43.464-.371.297-.625.743-.761 1.338h4.327zM186.677 19.915c-1.114 0-2.049-.223-2.804-.668-.756-.446-1.276-1.096-1.561-1.95l2.564-.985c.136.409.359.724.668.947.322.223.737.335 1.245.335.359 0 .625-.062.798-.186a.637.637 0 0 0 .279-.539c0-.26-.13-.464-.39-.613a4.62 4.62 0 0 0-.948-.408c-.371-.124-.78-.248-1.225-.372a6.026 6.026 0 0 1-1.226-.538 3.28 3.28 0 0 1-.947-.855c-.248-.359-.372-.817-.372-1.374 0-.954.359-1.696 1.077-2.229.731-.545 1.715-.817 2.954-.817 1.002 0 1.844.192 2.525.576.681.371 1.121.904 1.319 1.597l-2.563 1.003c-.223-.62-.669-.929-1.337-.929-.632 0-.947.217-.947.65 0 .236.123.415.371.539.26.124.576.241.947.353.384.099.793.21 1.226.334.446.124.854.297 1.226.52.384.223.699.52.947.892.26.371.39.86.39 1.467 0 1.015-.378 1.814-1.133 2.396-.755.57-1.783.854-3.083.854zM193.927 8.567c-.557 0-1.022-.173-1.393-.52-.372-.359-.557-.817-.557-1.374 0-.557.185-1.016.557-1.375.371-.359.836-.538 1.393-.538s1.021.18 1.393.538c.371.36.557.818.557 1.375s-.186 1.015-.557 1.374c-.372.347-.836.52-1.393.52zm-1.56 1.319h3.101v9.788h-3.101V9.886zM207.541 9.886v8.246c0 .755-.124 1.443-.371 2.062a4.226 4.226 0 0 1-1.059 1.616c-.458.458-1.028.81-1.709 1.058s-1.455.372-2.321.372c-1.399 0-2.501-.266-3.306-.799-.793-.532-1.35-1.213-1.672-2.043l2.619-1.021c.198.445.501.767.91.965.421.21.91.316 1.467.316.818 0 1.449-.204 1.895-.613.458-.408.687-.947.687-1.616v-.278c-.347.359-.755.637-1.226.836-.458.185-.99.278-1.597.278a5.16 5.16 0 0 1-1.969-.371 4.718 4.718 0 0 1-1.541-1.022 4.924 4.924 0 0 1-1.003-1.523 4.894 4.894 0 0 1-.353-1.857c0-.656.117-1.275.353-1.857a4.716 4.716 0 0 1 1.021-1.542 4.584 4.584 0 0 1 1.542-1.04 4.81 4.81 0 0 1 1.95-.39c.607 0 1.139.1 1.597.297.471.186.879.458 1.226.817v-.891h2.86zm-5.275 7.02c.669 0 1.208-.216 1.616-.65.409-.433.613-.972.613-1.616 0-.643-.204-1.182-.613-1.615-.408-.434-.947-.65-1.616-.65-.309 0-.6.062-.872.185a1.988 1.988 0 0 0-.706.483 2.133 2.133 0 0 0-.465.706 2.34 2.34 0 0 0-.167.891c0 .31.056.607.167.892.112.272.267.514.465.724.198.198.433.36.706.483.272.112.563.167.872.167zM215.192 9.644c.582 0 1.102.093 1.561.279.47.186.872.446 1.207.78.334.334.588.737.761 1.207.186.47.279.985.279 1.542v6.222h-3.102v-5.61c0-.532-.161-.94-.483-1.225-.309-.297-.699-.446-1.17-.446-.47 0-.873.149-1.207.446a1.453 1.453 0 0 0-.483 1.114v5.72h-3.102V9.887h2.916v.78c.335-.31.737-.557 1.208-.743a4.463 4.463 0 0 1 1.615-.279z" fill="#545666"/></svg>