<svg width="219" height="28" viewBox="0 0 219 28" fill="none" xmlns="http://www.w3.org/2000/svg">
<path fill-rule="evenodd" clip-rule="evenodd" d="M11.0605 0C13.2628 0 15.286 0.375082 17.1301 1.12526C18.9742 1.87543 20.5662 2.89351 21.9062 4.17953C23.2462 5.46555 24.2942 6.95918 25.0505 8.66047C25.8067 10.3618 26.1848 12.0978 26.1848 14C26.1848 15.9022 25.8067 17.6382 25.0505 19.3395C24.2942 21.0408 23.2462 22.5345 21.9062 23.8205C20.5662 25.1065 18.9742 26.1246 17.1301 26.8747C15.286 27.6249 13.2628 28 11.0605 28H0V0H11.0605ZM14.8295 5.18L5.18091 15.721H11.2458L8.48901 22.82L18.4133 12.279H12.3485L14.8295 5.18Z" fill="url(#paint0_linear_4206_2328)"/>
<path d="M42.4571 19.9152C41.1942 19.9152 40.1107 19.6242 39.2069 19.0423C38.3154 18.448 37.7086 17.606 37.3867 16.5164L40.3212 15.3834C40.4822 15.9902 40.7732 16.4545 41.1942 16.7764C41.6275 17.086 42.1476 17.2407 42.7543 17.2407C43.2867 17.2407 43.6891 17.1417 43.9615 16.9436C44.2339 16.7455 44.3701 16.4669 44.3701 16.1078C44.3701 15.7239 44.2092 15.4268 43.8872 15.2163C43.5777 14.9934 43.1815 14.8015 42.6986 14.6405C42.2281 14.4672 41.7142 14.3 41.157 14.1391C40.5998 13.9657 40.0798 13.7367 39.5969 13.4519C39.1264 13.1547 38.7302 12.7709 38.4082 12.3003C38.0987 11.8175 37.9439 11.1922 37.9439 10.4245C37.9439 9.85492 38.043 9.33488 38.2411 8.86437C38.4516 8.38147 38.7549 7.96668 39.1511 7.61999C39.5597 7.27329 40.055 7.00708 40.637 6.82135C41.2189 6.62324 41.8876 6.52419 42.6429 6.52419C43.881 6.52419 44.9087 6.80897 45.726 7.37854C46.5432 7.93573 47.0694 8.66007 47.3047 9.55157L44.3887 10.6845C44.2525 10.1645 44.0172 9.78063 43.6829 9.53299C43.361 9.28535 42.9648 9.16153 42.4943 9.16153C42.0114 9.16153 41.6461 9.26059 41.3985 9.4587C41.1632 9.64443 41.0456 9.88588 41.0456 10.183C41.0456 10.5545 41.2065 10.8455 41.5285 11.056C41.8504 11.2541 42.2466 11.4336 42.7171 11.5946C43.2 11.7555 43.7201 11.9289 44.2773 12.1146C44.8345 12.288 45.3483 12.5294 45.8188 12.839C46.3017 13.1485 46.7041 13.5571 47.0261 14.0648C47.348 14.56 47.509 15.2163 47.509 16.0335C47.509 16.6031 47.3913 17.1293 47.1561 17.6122C46.9332 18.0827 46.6051 18.4913 46.1717 18.838C45.7383 19.1723 45.2059 19.4385 44.5744 19.6366C43.9553 19.8224 43.2496 19.9152 42.4571 19.9152Z" fill="#1F2029"/>
<path d="M58.4305 9.88588V19.6738H55.5331V18.8566C55.1864 19.1785 54.7778 19.4385 54.3073 19.6366C53.8492 19.8224 53.3477 19.9152 52.8029 19.9152C52.1714 19.9152 51.6204 19.8162 51.1499 19.6181C50.6794 19.4199 50.2832 19.1475 49.9613 18.8009C49.6517 18.4418 49.4164 18.027 49.2555 17.5565C49.1069 17.0736 49.0326 16.5535 49.0326 15.9963V9.88588H52.1343V15.5877C52.1343 16.0459 52.2705 16.4235 52.5429 16.7207C52.8277 17.0179 53.2239 17.1664 53.7316 17.1664C54.2268 17.1664 54.6169 17.024 54.9016 16.7393C55.1988 16.4421 55.3474 16.0583 55.3474 15.5877V9.88588H58.4305Z" fill="#1F2029"/>
<path d="M66.1199 9.663C66.8257 9.663 67.4696 9.79301 68.0515 10.053C68.6458 10.3131 69.1535 10.6721 69.5745 11.1303C69.9955 11.5884 70.3236 12.1332 70.5588 12.7647C70.7941 13.3838 70.9117 14.0586 70.9117 14.7891C70.9117 15.5196 70.7879 16.2007 70.5403 16.8321C70.305 17.4512 69.9707 17.9898 69.5373 18.448C69.104 18.9061 68.5901 19.2652 67.9958 19.5252C67.4015 19.7852 66.7514 19.9152 66.0456 19.9152C65.5256 19.9152 65.0489 19.8409 64.6155 19.6924C64.1821 19.5438 63.7983 19.3333 63.464 19.0609V22.9983H60.3623V9.88588H63.2225V10.7774C63.5816 10.4183 64.0026 10.1459 64.4855 9.96017C64.9808 9.76206 65.5256 9.663 66.1199 9.663ZM65.5999 17.185C66.2561 17.185 66.7947 16.9621 67.2157 16.5164C67.6367 16.0706 67.8472 15.4949 67.8472 14.7891C67.8472 14.0833 67.6367 13.5076 67.2157 13.0618C66.7947 12.6037 66.2561 12.3746 65.5999 12.3746C64.9189 12.3746 64.3679 12.5975 63.9469 13.0433C63.5259 13.489 63.3154 14.071 63.3154 14.7891C63.3154 15.5073 63.5197 16.0892 63.9283 16.535C64.3493 16.9683 64.9065 17.185 65.5999 17.185Z" fill="#1F2029"/>
<path d="M74.9966 15.6992C75.1575 16.2564 75.4423 16.6774 75.8509 16.9621C76.2595 17.2469 76.761 17.3893 77.3553 17.3893C77.9125 17.3893 78.3397 17.3026 78.6368 17.1293C78.934 16.9436 79.1817 16.6897 79.3798 16.3678L81.7014 17.9094C81.5033 18.1694 81.2742 18.4232 81.0142 18.6708C80.7542 18.9061 80.4446 19.1166 80.0855 19.3023C79.7388 19.488 79.3302 19.6366 78.8597 19.7481C78.4016 19.8595 77.8692 19.9152 77.2625 19.9152C76.4576 19.9152 75.7271 19.7852 75.0709 19.5252C74.427 19.2652 73.876 18.9061 73.4179 18.448C72.9597 17.9898 72.6068 17.4512 72.3592 16.8321C72.1116 16.2007 71.9878 15.5196 71.9878 14.7891C71.9878 14.0833 72.1178 13.4209 72.3778 12.8018C72.6502 12.1703 73.0155 11.6255 73.4736 11.1674C73.9317 10.6969 74.4703 10.3254 75.0894 10.053C75.7085 9.78063 76.371 9.64443 77.0767 9.64443C77.8816 9.64443 78.5935 9.79301 79.2126 10.0902C79.8441 10.375 80.3765 10.7526 80.8099 11.2231C81.2556 11.6813 81.5899 12.2075 81.8128 12.8018C82.0481 13.3838 82.1657 13.9781 82.1657 14.5848C82.1657 14.8324 82.1595 15.0491 82.1471 15.2349C82.1348 15.4082 82.1162 15.563 82.0914 15.6992H74.9966ZM79.2869 13.7676C79.1507 13.2104 78.9031 12.7709 78.544 12.4489C78.1849 12.127 77.7206 11.966 77.151 11.966C76.5814 11.966 76.1047 12.1208 75.7209 12.4304C75.3494 12.7275 75.0956 13.1733 74.9594 13.7676H79.2869Z" fill="#1F2029"/>
<path d="M86.55 10.7217C86.8843 10.3997 87.2806 10.1397 87.7387 9.94159C88.1968 9.74348 88.7045 9.64443 89.2617 9.64443V12.5418C88.4445 12.5418 87.8192 12.6966 87.3858 13.0061C86.9524 13.3157 86.7357 13.7924 86.7357 14.4362V19.6738H83.6341V9.88588H86.55V10.7217Z" fill="#1F2029"/>
<path d="M95.1102 19.9152C94.3673 19.9152 93.6739 19.7852 93.03 19.5252C92.3986 19.2652 91.8476 18.9061 91.377 18.448C90.9189 17.9898 90.5536 17.4512 90.2812 16.8321C90.0212 16.2007 89.8912 15.5258 89.8912 14.8077C89.8912 14.0895 90.0212 13.4209 90.2812 12.8018C90.5413 12.1703 90.9003 11.6255 91.3585 11.1674C91.829 10.6969 92.38 10.3316 93.0115 10.0716C93.6553 9.7992 94.3487 9.663 95.0916 9.663C95.785 9.663 96.4041 9.76825 96.9489 9.97874C97.5061 10.1769 97.9828 10.4369 98.379 10.7588C98.7752 11.0683 99.0972 11.415 99.3448 11.7989C99.6048 12.1827 99.7844 12.5542 99.8834 12.9133L97.1346 14.0091C97.0108 13.5385 96.7818 13.1547 96.4474 12.8575C96.1131 12.5604 95.686 12.4118 95.1659 12.4118C94.5592 12.4118 94.0453 12.6223 93.6244 13.0433C93.2158 13.4642 93.0115 14.0462 93.0115 14.7891C93.0115 15.532 93.2158 16.114 93.6244 16.535C94.0453 16.9559 94.5592 17.1664 95.1659 17.1664C95.6983 17.1664 96.1379 17.0179 96.4846 16.7207C96.8313 16.4235 97.0665 16.0521 97.1904 15.6063L99.9392 16.7021C99.8401 17.0488 99.6606 17.4141 99.4005 17.7979C99.1529 18.1694 98.8248 18.5161 98.4162 18.838C98.02 19.1475 97.5432 19.4076 96.9861 19.6181C96.4289 19.8162 95.8036 19.9152 95.1102 19.9152Z" fill="#1F2029"/>
<path d="M106.913 9.64443C107.495 9.64443 108.015 9.73729 108.473 9.92302C108.944 10.1088 109.346 10.3688 109.681 10.7031C110.015 11.0374 110.269 11.4398 110.442 11.9103C110.628 12.3808 110.721 12.8947 110.721 13.4519V19.6738H107.619V14.0648C107.619 13.5323 107.458 13.1237 107.136 12.839C106.827 12.5418 106.437 12.3932 105.966 12.3932C105.496 12.3932 105.093 12.5418 104.759 12.839C104.437 13.1361 104.276 13.5076 104.276 13.9533V19.6738H101.174V6.09701H104.276V10.5174C104.61 10.245 104.994 10.0345 105.428 9.88588C105.873 9.72491 106.369 9.64443 106.913 9.64443Z" fill="#1F2029"/>
<path d="M122.734 9.88588V19.6738H119.874V18.7823C119.527 19.1414 119.118 19.4199 118.648 19.6181C118.19 19.8162 117.657 19.9152 117.05 19.9152C116.345 19.9152 115.688 19.7852 115.082 19.5252C114.487 19.2652 113.974 18.9061 113.54 18.448C113.107 17.9898 112.766 17.4512 112.519 16.8321C112.283 16.2007 112.166 15.5196 112.166 14.7891C112.166 14.0586 112.283 13.39 112.519 12.7832C112.766 12.1765 113.107 11.6565 113.54 11.2231C113.974 10.7898 114.487 10.4554 115.082 10.2202C115.688 9.97255 116.345 9.84873 117.05 9.84873C118.227 9.84873 119.168 10.2016 119.874 10.9074V9.88588H122.734ZM117.496 17.185C118.177 17.185 118.722 16.9621 119.131 16.5164C119.552 16.0706 119.762 15.4949 119.762 14.7891C119.762 14.071 119.552 13.489 119.131 13.0433C118.722 12.5975 118.177 12.3746 117.496 12.3746C116.84 12.3746 116.301 12.6037 115.88 13.0618C115.459 13.5076 115.249 14.0833 115.249 14.7891C115.249 15.4949 115.453 16.0706 115.862 16.5164C116.283 16.9621 116.828 17.185 117.496 17.185Z" fill="#1F2029"/>
<path d="M127.562 10.7217C127.896 10.3997 128.292 10.1397 128.75 9.94159C129.208 9.74348 129.716 9.64443 130.273 9.64443V12.5418C129.456 12.5418 128.831 12.6966 128.397 13.0061C127.964 13.3157 127.747 13.7924 127.747 14.4362V19.6738H124.646V9.88588H127.562V10.7217Z" fill="#1F2029"/>
<path d="M141.489 9.88588V18.1322C141.489 18.8875 141.365 19.5747 141.117 20.1938C140.882 20.8253 140.529 21.3639 140.059 21.8097C139.601 22.2678 139.031 22.6207 138.35 22.8683C137.669 23.1159 136.895 23.2398 136.028 23.2398C134.629 23.2398 133.527 22.9736 132.722 22.4411C131.93 21.9087 131.373 21.2277 131.051 20.3981L133.67 19.3766C133.868 19.8224 134.171 20.1443 134.58 20.3424C135.001 20.5529 135.49 20.6581 136.047 20.6581C136.864 20.6581 137.496 20.4538 137.941 20.0452C138.4 19.6366 138.629 19.098 138.629 18.4294V18.1508C138.282 18.5099 137.873 18.7885 137.403 18.9866C136.945 19.1723 136.412 19.2652 135.806 19.2652C135.1 19.2652 134.444 19.1414 133.837 18.8937C133.242 18.6461 132.729 18.3056 132.295 17.8722C131.874 17.4388 131.54 16.9312 131.292 16.3492C131.057 15.7673 130.939 15.1482 130.939 14.4919C130.939 13.8357 131.057 13.2166 131.292 12.6347C131.54 12.0403 131.88 11.5265 132.314 11.0931C132.747 10.6474 133.261 10.3007 133.855 10.053C134.45 9.79301 135.1 9.663 135.806 9.663C136.412 9.663 136.945 9.76206 137.403 9.96017C137.873 10.1459 138.282 10.4183 138.629 10.7774V9.88588H141.489ZM136.214 16.9064C136.883 16.9064 137.421 16.6897 137.83 16.2564C138.239 15.823 138.443 15.2844 138.443 14.6405C138.443 13.9967 138.239 13.4581 137.83 13.0247C137.421 12.5913 136.883 12.3746 136.214 12.3746C135.905 12.3746 135.614 12.4366 135.341 12.5604C135.069 12.6718 134.834 12.8328 134.635 13.0433C134.437 13.2414 134.283 13.4766 134.171 13.749C134.06 14.0214 134.004 14.3186 134.004 14.6405C134.004 14.9501 134.06 15.2472 134.171 15.532C134.283 15.8044 134.437 16.0459 134.635 16.2564C134.834 16.4545 135.069 16.6154 135.341 16.7393C135.614 16.8507 135.905 16.9064 136.214 16.9064Z" fill="#1F2029"/>
<path d="M145.964 15.6992C146.125 16.2564 146.41 16.6774 146.819 16.9621C147.227 17.2469 147.729 17.3893 148.323 17.3893C148.88 17.3893 149.307 17.3026 149.604 17.1293C149.902 16.9436 150.149 16.6897 150.347 16.3678L152.669 17.9094C152.471 18.1694 152.242 18.4232 151.982 18.6708C151.722 18.9061 151.412 19.1166 151.053 19.3023C150.706 19.488 150.298 19.6366 149.827 19.7481C149.369 19.8595 148.837 19.9152 148.23 19.9152C147.425 19.9152 146.695 19.7852 146.038 19.5252C145.395 19.2652 144.844 18.9061 144.385 18.448C143.927 17.9898 143.574 17.4512 143.327 16.8321C143.079 16.2007 142.955 15.5196 142.955 14.7891C142.955 14.0833 143.085 13.4209 143.345 12.8018C143.618 12.1703 143.983 11.6255 144.441 11.1674C144.899 10.6969 145.438 10.3254 146.057 10.053C146.676 9.78063 147.339 9.64443 148.044 9.64443C148.849 9.64443 149.561 9.79301 150.18 10.0902C150.812 10.375 151.344 10.7526 151.777 11.2231C152.223 11.6813 152.558 12.2075 152.78 12.8018C153.016 13.3838 153.133 13.9781 153.133 14.5848C153.133 14.8324 153.127 15.0491 153.115 15.2349C153.102 15.4082 153.084 15.563 153.059 15.6992H145.964ZM150.254 13.7676C150.118 13.2104 149.871 12.7709 149.512 12.4489C149.153 12.127 148.688 11.966 148.119 11.966C147.549 11.966 147.072 12.1208 146.688 12.4304C146.317 12.7275 146.063 13.1733 145.927 13.7676H150.254Z" fill="#1F2029"/>
<path d="M163.551 6.76563C164.542 6.76563 165.439 6.92041 166.244 7.22996C167.061 7.52712 167.761 7.9543 168.343 8.51148C168.937 9.06867 169.395 9.74348 169.717 10.5359C170.039 11.3284 170.2 12.2199 170.2 13.2104C170.2 14.201 170.039 15.0987 169.717 15.9035C169.395 16.6959 168.937 17.3707 168.343 17.9279C167.761 18.4851 167.061 18.9185 166.244 19.228C165.439 19.5252 164.542 19.6738 163.551 19.6738H158.425V6.76563H163.551ZM163.458 16.925C164.548 16.925 165.421 16.6154 166.077 15.9963C166.733 15.3649 167.061 14.4486 167.061 13.2476C167.061 12.0218 166.733 11.0931 166.077 10.4616C165.421 9.83016 164.548 9.51442 163.458 9.51442H161.527V16.925H163.458Z" fill="#1F2029"/>
<path d="M174.397 15.6992C174.558 16.2564 174.842 16.6774 175.251 16.9621C175.66 17.2469 176.161 17.3893 176.755 17.3893C177.313 17.3893 177.74 17.3026 178.037 17.1293C178.334 16.9436 178.582 16.6897 178.78 16.3678L181.101 17.9094C180.903 18.1694 180.674 18.4232 180.414 18.6708C180.154 18.9061 179.845 19.1166 179.486 19.3023C179.139 19.488 178.73 19.6366 178.26 19.7481C177.802 19.8595 177.269 19.9152 176.663 19.9152C175.858 19.9152 175.127 19.7852 174.471 19.5252C173.827 19.2652 173.276 18.9061 172.818 18.448C172.36 17.9898 172.007 17.4512 171.759 16.8321C171.512 16.2007 171.388 15.5196 171.388 14.7891C171.388 14.0833 171.518 13.4209 171.778 12.8018C172.05 12.1703 172.416 11.6255 172.874 11.1674C173.332 10.6969 173.87 10.3254 174.49 10.053C175.109 9.78063 175.771 9.64443 176.477 9.64443C177.282 9.64443 177.994 9.79301 178.613 10.0902C179.244 10.375 179.777 10.7526 180.21 11.2231C180.656 11.6813 180.99 12.2075 181.213 12.8018C181.448 13.3838 181.566 13.9781 181.566 14.5848C181.566 14.8324 181.56 15.0491 181.547 15.2349C181.535 15.4082 181.516 15.563 181.492 15.6992H174.397ZM178.687 13.7676C178.551 13.2104 178.303 12.7709 177.944 12.4489C177.585 12.127 177.121 11.966 176.551 11.966C175.982 11.966 175.505 12.1208 175.121 12.4304C174.75 12.7275 174.496 13.1733 174.36 13.7676H178.687Z" fill="#1F2029"/>
<path d="M186.677 19.9152C185.563 19.9152 184.628 19.6924 183.873 19.2466C183.117 18.8009 182.597 18.1508 182.312 17.2964L184.876 16.3121C185.012 16.7207 185.235 17.0364 185.544 17.2593C185.866 17.4822 186.281 17.5936 186.789 17.5936C187.148 17.5936 187.414 17.5317 187.587 17.4079C187.773 17.2717 187.866 17.0921 187.866 16.8693C187.866 16.6093 187.736 16.405 187.476 16.2564C187.228 16.1078 186.912 15.9716 186.528 15.8478C186.157 15.7239 185.748 15.6001 185.303 15.4763C184.869 15.3401 184.461 15.1606 184.077 14.9377C183.705 14.7148 183.39 14.43 183.13 14.0833C182.882 13.7243 182.758 13.2661 182.758 12.709C182.758 11.7555 183.117 11.0126 183.835 10.4802C184.566 9.9354 185.55 9.663 186.789 9.663C187.791 9.663 188.633 9.85492 189.314 10.2388C189.995 10.6102 190.435 11.1426 190.633 11.836L188.07 12.839C187.847 12.2199 187.401 11.9103 186.733 11.9103C186.101 11.9103 185.786 12.127 185.786 12.5604C185.786 12.7956 185.909 12.9752 186.157 13.099C186.417 13.2228 186.733 13.3404 187.104 13.4519C187.488 13.5509 187.897 13.6624 188.33 13.7862C188.776 13.91 189.184 14.0833 189.556 14.3062C189.94 14.5291 190.255 14.8263 190.503 15.1977C190.763 15.5692 190.893 16.0583 190.893 16.665C190.893 17.6803 190.515 18.4789 189.76 19.0609C189.005 19.6304 187.977 19.9152 186.677 19.9152Z" fill="#1F2029"/>
<path d="M193.927 8.5672C193.37 8.5672 192.905 8.39386 192.534 8.04716C192.162 7.68809 191.977 7.22996 191.977 6.67277C191.977 6.11558 192.162 5.65745 192.534 5.29838C192.905 4.9393 193.37 4.75977 193.927 4.75977C194.484 4.75977 194.948 4.9393 195.32 5.29838C195.691 5.65745 195.877 6.11558 195.877 6.67277C195.877 7.22996 195.691 7.68809 195.32 8.04716C194.948 8.39386 194.484 8.5672 193.927 8.5672ZM192.367 9.88588H195.468V19.6738H192.367V9.88588Z" fill="#1F2029"/>
<path d="M207.541 9.88588V18.1322C207.541 18.8875 207.417 19.5747 207.17 20.1938C206.934 20.8253 206.582 21.3639 206.111 21.8097C205.653 22.2678 205.083 22.6207 204.402 22.8683C203.721 23.1159 202.947 23.2398 202.081 23.2398C200.682 23.2398 199.58 22.9736 198.775 22.4411C197.982 21.9087 197.425 21.2277 197.103 20.3981L199.722 19.3766C199.92 19.8224 200.223 20.1443 200.632 20.3424C201.053 20.5529 201.542 20.6581 202.099 20.6581C202.917 20.6581 203.548 20.4538 203.994 20.0452C204.452 19.6366 204.681 19.098 204.681 18.4294V18.1508C204.334 18.5099 203.926 18.7885 203.455 18.9866C202.997 19.1723 202.465 19.2652 201.858 19.2652C201.152 19.2652 200.496 19.1414 199.889 18.8937C199.295 18.6461 198.781 18.3056 198.348 17.8722C197.927 17.4388 197.592 16.9312 197.345 16.3492C197.109 15.7673 196.992 15.1482 196.992 14.4919C196.992 13.8357 197.109 13.2166 197.345 12.6347C197.592 12.0403 197.933 11.5265 198.366 11.0931C198.8 10.6474 199.313 10.3007 199.908 10.053C200.502 9.79301 201.152 9.663 201.858 9.663C202.465 9.663 202.997 9.76206 203.455 9.96017C203.926 10.1459 204.334 10.4183 204.681 10.7774V9.88588H207.541ZM202.266 16.9064C202.935 16.9064 203.474 16.6897 203.882 16.2564C204.291 15.823 204.495 15.2844 204.495 14.6405C204.495 13.9967 204.291 13.4581 203.882 13.0247C203.474 12.5913 202.935 12.3746 202.266 12.3746C201.957 12.3746 201.666 12.4366 201.394 12.5604C201.121 12.6718 200.886 12.8328 200.688 13.0433C200.49 13.2414 200.335 13.4766 200.223 13.749C200.112 14.0214 200.056 14.3186 200.056 14.6405C200.056 14.9501 200.112 15.2472 200.223 15.532C200.335 15.8044 200.49 16.0459 200.688 16.2564C200.886 16.4545 201.121 16.6154 201.394 16.7393C201.666 16.8507 201.957 16.9064 202.266 16.9064Z" fill="#1F2029"/>
<path d="M215.192 9.64443C215.774 9.64443 216.294 9.73729 216.753 9.92302C217.223 10.1088 217.625 10.3688 217.96 10.7031C218.294 11.0374 218.548 11.4398 218.721 11.9103C218.907 12.3808 219 12.8947 219 13.4519V19.6738H215.898V14.0648C215.898 13.5323 215.737 13.1237 215.415 12.839C215.106 12.5418 214.716 12.3932 214.245 12.3932C213.775 12.3932 213.372 12.5418 213.038 12.839C212.716 13.1361 212.555 13.5076 212.555 13.9533V19.6738H209.453V9.88588H212.369V10.6659C212.704 10.3564 213.106 10.1088 213.577 9.92302C214.059 9.73729 214.598 9.64443 215.192 9.64443Z" fill="#1F2029"/>
<defs>
<linearGradient id="paint0_linear_4206_2328" x1="26.1848" y1="8.34465e-07" x2="-1.75244" y2="26.1261" gradientUnits="userSpaceOnUse">
<stop stop-color="#EA6C49"/>
<stop offset="1" stop-color="#D34252"/>
</linearGradient>
</defs>
</svg>
